<svg width="40" height="41" viewBox="0 0 40 41" fill="none" xmlns="http://www.w3.org/2000/svg">
<path fill-rule="evenodd" clip-rule="evenodd" d="M5.91675 9.37743V22.337C5.91675 27.6462 10.0651 32.1401 19.6667 35.5109C29.2684 32.1401 33.4167 27.6462 33.4167 22.337V9.38228C28.9337 8.82267 25.4617 8.1701 23.0425 7.41087C21.7434 7.00319 20.663 6.5394 19.8826 5.98769C19.7962 5.92661 19.7107 5.86231 19.6269 5.79473C19.5698 5.83903 19.512 5.88185 19.4539 5.92321C18.6744 6.47772 17.5948 6.94607 16.2958 7.35948C13.8759 8.12962 10.4024 8.79779 5.91675 9.37743ZM18.4167 3.50054H20.9167V3.54784C20.9339 3.58934 21.0135 3.72554 21.3259 3.94633C21.7955 4.27834 22.5901 4.6487 23.791 5.02557C26.1766 5.77423 29.8329 6.44908 34.8123 7.03288L35.9167 7.16237V22.337C35.9167 29.4357 30.1816 34.5552 20.0716 38.0165L19.6667 38.1551L19.2619 38.0165C9.1519 34.5552 3.41675 29.4357 3.41675 22.337V7.16725L4.51577 7.03353C9.49516 6.42766 13.1517 5.73657 15.5377 4.97722C16.7387 4.59499 17.5341 4.22088 18.0046 3.88612C18.3322 3.65311 18.4053 3.51325 18.4183 3.47775C18.4175 3.48302 18.4167 3.4906 18.4167 3.50054Z" fill="#D90D25"/>
<path fill-rule="evenodd" clip-rule="evenodd" d="M13.4167 20.0795C13.4167 18.4687 14.7226 17.1628 16.3334 17.1628H22.8246C24.4355 17.1628 25.7413 18.4687 25.7413 20.0795V25.1672C25.7413 26.778 24.4355 28.0839 22.8246 28.0839H16.3334C14.7226 28.0839 13.4167 26.778 13.4167 25.1672V20.0795ZM16.3334 19.6628C16.1033 19.6628 15.9167 19.8494 15.9167 20.0795V25.1672C15.9167 25.3973 16.1033 25.5839 16.3334 25.5839H22.8246C23.0548 25.5839 23.2413 25.3973 23.2413 25.1672V20.0795C23.2413 19.8494 23.0548 19.6628 22.8246 19.6628H16.3334Z" fill="#D90D25"/>
<path fill-rule="evenodd" clip-rule="evenodd" d="M19.579 14.7505C18.7191 14.7505 18.022 15.4476 18.022 16.3076V18.0619C18.022 18.7523 17.4624 19.3119 16.772 19.3119C16.0817 19.3119 15.522 18.7523 15.522 18.0619V16.3076C15.522 14.0669 17.3384 12.2505 19.579 12.2505C21.2348 12.2505 22.6561 13.2423 23.2867 14.6589C23.5675 15.2896 23.2838 16.0284 22.6531 16.3092C22.0224 16.5899 21.2835 16.3062 21.0028 15.6755C20.7591 15.1281 20.2118 14.7505 19.579 14.7505Z" fill="#D90D25"/>
</svg>
