<svg width="24" height="24" viewBox="0 0 24 24" fill="none" xmlns="http://www.w3.org/2000/svg">
<path d="M22 12C22 17.5228 17.5228 22 12 22C6.47715 22 2 17.5228 2 12C2 6.47715 6.47715 2 12 2C17.5228 2 22 6.47715 22 12Z" fill="#181818"/>
<path fill-rule="evenodd" clip-rule="evenodd" d="M12 2.75C6.89137 2.75 2.75 6.89137 2.75 12C2.75 17.1086 6.89137 21.25 12 21.25C17.1086 21.25 21.25 17.1086 21.25 12C21.25 6.89137 17.1086 2.75 12 2.75ZM1.25 12C1.25 6.06294 6.06294 1.25 12 1.25C17.9371 1.25 22.75 6.06294 22.75 12C22.75 17.9371 17.9371 22.75 12 22.75C6.06294 22.75 1.25 17.9371 1.25 12Z" fill="#181818"/>
<g clip-path="url(#clip0_1_130)">
<path fill-rule="evenodd" clip-rule="evenodd" d="M7.75968 16.1381C7.63764 16.0161 7.63764 15.8182 7.75968 15.6962L15.6959 7.75995C15.6959 7.75995 15.6962 7.75968 15.9172 7.98065C16.1381 8.20162 16.1381 8.20165 16.1381 8.20165L8.20162 16.1381C8.07958 16.2602 7.88172 16.2602 7.75968 16.1381ZM16.1381 7.75968C16.2602 7.88172 16.2601 8.07961 16.1381 8.20165L15.9172 7.98065L15.6959 7.75995C15.8179 7.63791 16.0161 7.63764 16.1381 7.75968Z" fill="white"/>
<path fill-rule="evenodd" clip-rule="evenodd" d="M7.75968 7.75967C7.88172 7.63763 8.07958 7.63763 8.20162 7.75967L16.1379 15.6959C16.1379 15.6959 16.1381 15.6962 15.9172 15.9171C15.6962 16.1381 15.6962 16.1381 15.6962 16.1381L7.75968 8.20162C7.63764 8.07958 7.63764 7.88171 7.75968 7.75967ZM16.1381 16.1381C16.0161 16.2602 15.8182 16.2601 15.6962 16.1381L15.9172 15.9171L16.1379 15.6959C16.2599 15.8179 16.2602 16.0161 16.1381 16.1381Z" fill="white"/>
<path d="M15.6959 7.75995C15.6959 7.75995 15.6962 7.75968 15.9172 7.98065M15.6959 7.75995L15.9172 7.98065M15.6959 7.75995C15.8179 7.63791 16.0161 7.63764 16.1381 7.75968C16.2602 7.88172 16.2601 8.07961 16.1381 8.20165M15.6959 7.75995L7.75968 15.6962C7.63764 15.8182 7.63764 16.0161 7.75968 16.1381C7.88172 16.2602 8.07958 16.2602 8.20162 16.1381L16.1381 8.20165M15.9172 7.98065C16.1381 8.20162 16.1381 8.20165 16.1381 8.20165M15.9172 7.98065L16.1381 8.20165M16.1379 15.6959C16.1379 15.6959 16.1381 15.6962 15.9172 15.9171M16.1379 15.6959L15.9172 15.9171M16.1379 15.6959C16.2599 15.8179 16.2602 16.0161 16.1381 16.1381C16.0161 16.2602 15.8182 16.2601 15.6962 16.1381M16.1379 15.6959L8.20162 7.75967C8.07958 7.63763 7.88172 7.63763 7.75968 7.75967C7.63764 7.88171 7.63764 8.07958 7.75968 8.20162L15.6962 16.1381M15.9172 15.9171C15.6962 16.1381 15.6962 16.1381 15.6962 16.1381M15.9172 15.9171L15.6962 16.1381" stroke="white" stroke-linecap="round" stroke-linejoin="round"/>
</g>
<defs>
<clipPath id="clip0_1_130">
<rect width="10" height="10" fill="white" transform="translate(7 7)"/>
</clipPath>
</defs>
</svg>
