<svg width="40" height="41" viewBox="0 0 40 41" fill="none" xmlns="http://www.w3.org/2000/svg">
<path fill-rule="evenodd" clip-rule="evenodd" d="M6.99341 8.08398C5.64411 8.08398 4.5835 9.15593 4.5835 10.4376V13.2238L18.8352 19.4604C19.4537 19.7311 20.1602 19.7348 20.7816 19.4708L35.0227 13.2245V10.4376C35.0227 9.15593 33.9621 8.08398 32.6128 8.08398H6.99341ZM37.5227 14.0126V10.4376C37.5227 7.73882 35.3061 5.58398 32.6128 5.58398H6.99341C4.30008 5.58398 2.0835 7.73882 2.0835 10.4376V28.4543C2.0835 31.1531 4.30008 33.3092 6.99341 33.3092H32.6128C35.3061 33.3092 37.5227 31.1544 37.5227 28.4556V14.0685C37.5231 14.0499 37.5231 14.0312 37.5227 14.0126ZM35.0227 15.9544V28.4556C35.0227 29.7373 33.9621 30.8092 32.6128 30.8092H6.99341C5.64411 30.8092 4.5835 29.7373 4.5835 28.4556V15.9526L17.8329 21.7507C19.0852 22.2987 20.5121 22.3048 21.769 21.7676L35.0227 15.9544Z" fill="#181818"/>
</svg>
