<svg width="40" height="41" viewBox="0 0 40 41" fill="none" xmlns="http://www.w3.org/2000/svg">
<path fill-rule="evenodd" clip-rule="evenodd" d="M35.7961 4.28311C36.2842 4.77126 36.2842 5.56272 35.7961 6.05088L5.97152 35.8754C5.48336 36.3636 4.6919 36.3636 4.20375 35.8754C3.71559 35.3873 3.71559 34.5958 4.20375 34.1077L34.0283 4.28311C34.5165 3.79495 35.3079 3.79495 35.7961 4.28311Z" fill="#181818"/>
<path fill-rule="evenodd" clip-rule="evenodd" d="M4.88078 20.5686C5.69832 21.5835 7.42405 23.5365 9.85109 25.3005C12.5376 27.253 16.0031 28.917 19.9997 28.917C23.9964 28.917 27.4619 27.253 30.1484 25.3005C32.5754 23.5365 34.3012 21.5835 35.1187 20.5686C34.3149 19.4746 32.5839 17.3234 30.1393 15.3782C27.4431 13.2329 23.9798 11.417 19.9997 11.417C16.0196 11.417 12.5564 13.2329 9.86018 15.3782C7.41558 17.3234 5.68463 19.4746 4.88078 20.5686ZM8.30359 13.422C11.2438 11.0825 15.2443 8.91699 19.9997 8.91699C24.7552 8.91699 28.7557 11.0825 31.6959 13.422C34.6413 15.7656 36.624 18.3629 37.3735 19.421C37.8826 20.1399 37.871 21.1044 37.3238 21.8103C36.5537 22.804 34.5622 25.1831 31.6182 27.3228C28.6764 29.4609 24.7033 31.417 19.9997 31.417C15.2962 31.417 11.3231 29.4609 8.38128 27.3228C5.43733 25.1831 3.44582 22.804 2.67567 21.8103C2.12852 21.1044 2.11686 20.1399 2.62602 19.421C3.37545 18.3629 5.35823 15.7656 8.30359 13.422Z" fill="#181818"/>
<path fill-rule="evenodd" clip-rule="evenodd" d="M19.9997 15.5837C17.4684 15.5837 15.4164 17.6357 15.4164 20.167C15.4164 22.6983 17.4684 24.7503 19.9997 24.7503C22.531 24.7503 24.5831 22.6983 24.5831 20.167C24.5831 17.6357 22.531 15.5837 19.9997 15.5837ZM12.9164 20.167C12.9164 16.255 16.0877 13.0837 19.9997 13.0837C23.9118 13.0837 27.0831 16.255 27.0831 20.167C27.0831 24.079 23.9118 27.2503 19.9997 27.2503C16.0877 27.2503 12.9164 24.079 12.9164 20.167Z" fill="#181818"/>
</svg>
