<?xml version="1.0" encoding="UTF-8"?><svg xmlns="http://www.w3.org/2000/svg" viewBox="0 0 108 108"><defs><style>.cls-1{fill:none;}.cls-2{fill:#fff;}.cls-3{fill:#e2001a;}</style></defs><g id="Fond_Android"><rect class="cls-3" width="108" height="108" rx="10.55" ry="10.55"/></g><g id="Icone"><rect class="cls-1" width="108" height="108"/><path class="cls-2" d="M84.84,27.82H23.16c-2.14,0-3.88,1.74-3.88,3.88v44.6c0,2.14,1.74,3.88,3.88,3.88h61.68c2.14,0,3.88-1.74,3.88-3.88V31.7c0-2.14-1.74-3.88-3.88-3.88Zm-2.53,3.87l-27.35,26.78c-.5,.5-1.36,.51-1.89-.02L25.69,31.69h56.61Zm2.53,44.63H23.16s-.01,0-.01-.01V34.6l27.2,26.59c.98,.98,2.28,1.52,3.67,1.52s2.69-.54,3.66-1.5l27.18-26.61v41.69s0,.01-.01,.01Z"/></g></svg>